# xmcd
#
# Track frame offsets:
# 150
# 18107
# 34304
# 46886
# 63009
# 79365
# 96064
# 113840
# 129904
# 145664
# 159248
# 177095
# 196278
# 212544
# 231570
# 245708
# 258506
# 277673
# 296012
# 311712
#
# Disc length: 4356 seconds
#
#
# Revision: 0
# Processed by: cddbd v1.5.1PL2 Copyright (c) Steve Scherf et al.
# Submitted via: FreeRIP 2.942 
#
DISCID=12110214
DTITLE=As 20 Mais Marca do Sul -  Marca Do Sul
DYEAR=2006
DGENRE=Disco
TTITLE0=Todo Mundo Veio Pro Rodeio - João Luiz Corrêa
TTITLE1=As Coisas Do Meu Rincão - Os Fagundes
TTITLE2=Bulicho Do Chico Gaitero dDa Plameira
TTITLE3=Cuiudo Macho - Tio Nonato
TTITLE4=Estradeiro - Fogo de Chão
TTITLE5=Gaúcho Aventureiro - José Mendes
TTITLE6=Gaudério Por Demais - Porca Véia
TTITLE7=Gineteando - João Luiz Corrêa
TTITLE8=To Chegando No Pedaço - Grupo Candieiro
TTITLE9=Rever a Castelhana - Grupo Minuano
TTITLE10=Missioneiro Estraviado - Baitaca
TTITLE11=Entupido De Alegria - Os Farrapos e Iedo Silva
TTITLE12=Tempo da Porva Barata - Os Galponeiros
TTITLE13=Surungo de Respeito - Os Parceiros
TTITLE14=Pé De Bode - Osvaldir e Carlos Magrão
TTITLE15=Queixo de Ferro e Beiço de Mola - Xirú Missioneiro
TTITLE16=Rodeios Do RIo Grande - Grupo Rodeio
TTITLE17=De-lhe Boca - Rui Biriva
TTITLE18=Sem Frescura - Moraesinho
TTITLE19=Campeirando a Sorte - Sinuelo Pampeano
EXTD=
EXTT0=
EXTT1=
EXTT2=
EXTT3=
EXTT4=
EXTT5=
EXTT6=
EXTT7=
EXTT8=
EXTT9=
EXTT10=
EXTT11=
EXTT12=
EXTT13=
EXTT14=
EXTT15=
EXTT16=
EXTT17=
EXTT18=
EXTT19=
PLAYORDER=
